<svg xmlns="http://www.w3.org/2000/svg" xml:space="preserve" width="2000" height="146" data-id="lg_b03jOs2vljZHhYDPPS" data-version="1" viewBox="0 0 2000 146"><g data-padding="20"><g transform="translate(10 2.607)scale(.96429)"><rect width="629.554" height="163.85" x="524.579" y="-82.049" fill="none" rx="0" ry="0" transform="matrix(.89 0 0 .89 279.64 73.11)"/><path fill="#f96d00" d="M798.857 113.87h-23.27V44.42h-27.01v-21.6h77.42v21.6h-27.14Zm56.58-.01h-22.76V46.08h19.93l1.55 6.43q2.57-3.73 5.66-5.4 3.08-1.67 6.17-2.05 3.09-.39 5.66-.39 2.18 0 3.99.06 1.8.07 2.31.2v21.99h-4.37q-4.76 0-8.94 1.22t-6.69 4.63-2.51 10.23Zm52.23 0h-22.76V46.08h22.76Zm-11.32-72.41q-6.17 0-9.97-3.66-3.79-3.67-3.79-9.58 0-6.05 3.99-9.91 3.98-3.85 9.9-3.85 5.66 0 9.65 3.66 3.98 3.67 3.98 9.97 0 6.04-3.79 9.71-3.8 3.66-9.97 3.66m46.3 98.26h-22.76V46.08h21.09l1.16 7.46q4.63-5.01 9.51-6.94 4.89-1.93 11.06-1.93 9.78 0 16.34 4.69 6.56 4.7 9.9 12.61t3.34 17.68q0 10.03-3.53 18.01-3.54 7.97-10.42 12.6t-16.78 4.63q-3.99 0-7.66-.96-3.66-.97-6.55-2.51-2.9-1.55-4.7-3.35Zm14.28-45.53q5.14 0 7.97-2.18 2.83-2.19 3.92-5.4 1.1-3.22 1.1-6.18 0-3.47-1.29-6.94t-4.18-5.73q-2.89-2.25-7.91-2.25-4.63 0-7.72 2.13-3.08 2.12-4.63 5.4-1.54 3.28-1.54 6.88 0 3.47 1.48 6.75t4.63 5.4 8.17 2.12m70.72 19.69h-23.28V22.82h21.74l38.45 52.08V22.82h23.28v91.05h-21.09l-39.1-51.31Zm106.89 1.02q-10.42 0-18.2-4.18t-12.09-11.9q-4.31-7.71-4.31-18.39 0-10.67 4.37-18.71 4.38-8.04 12.22-12.54 7.85-4.5 18.27-4.5 7.45 0 13.37 2.31 5.92 2.32 10.16 6.69 4.25 4.37 6.5 10.55 2.25 6.17 2.25 13.89 0 2.18-.2 4.18-.19 1.99-.7 4.18h-43.73q.26 2.44 1.61 4.63 1.35 2.18 3.79 3.47t6.17 1.29q3.09 0 5.34-.71t3.67-1.87q1.41-1.15 1.8-2.31h22.25q-1.8 8.36-6.63 13.7-4.82 5.33-11.57 7.78-6.75 2.44-14.34 2.44m-11.71-43.21h22.9q0-1.93-1.1-4.05-1.09-2.13-3.6-3.54-2.5-1.42-6.62-1.42-3.99 0-6.56 1.42-2.57 1.41-3.79 3.54-1.23 2.12-1.23 4.05m81.54 43.21q-5.01 0-10.16-1.16-5.14-1.15-9.58-3.86-4.44-2.7-7.52-7.39-3.09-4.69-4.12-11.77h23.02q.52 1.67 1.87 2.96t3.34 1.99q2 .71 4.31.71 1.54 0 2.77-.26 1.22-.25 2.12-.83t1.35-1.35.45-1.67q0-1.81-1.42-2.64-1.41-.84-3.85-1.29-2.45-.45-5.53-1.09-4.76-1.03-10.23-2.64-5.46-1.6-9.19-4.05-1.93-1.28-3.28-2.89t-2.19-3.54-1.22-3.99q-.39-2.05-.39-4.37 0-5.91 2.64-9.97 2.63-4.05 6.81-6.49t9.26-3.54q5.08-1.09 9.97-1.09 7.2 0 13.44 2.31 6.24 2.32 10.42 7.46 4.18 5.15 5.21 13.64h-21.99q-.26-2.32-2.51-3.6-2.25-1.29-5.47-1.29-1.28 0-2.38.26-1.09.25-1.93.64-.83.39-1.28 1.03t-.45 1.41q0 .52.32 1.16t1.22 1.22 2.44 1.1q4.25 1.02 8.04 1.8 3.8.77 7.65 1.54 4.25.77 8.36 2.64 4.12 1.86 6.88 5.59 2.77 3.73 2.77 10.42 0 6.56-2.7 10.99-2.7 4.44-7.14 7.01-4.44 2.58-9.71 3.73-5.27 1.16-10.42 1.16m77.17-1.03h-5.92q-9 0-15.37-1.93-6.36-1.93-9.77-6.88t-3.41-14.34V66.4h-9.39V46.08h9.39V29.24h22.77v16.84h12.47V66.4h-12.47v20.84q0 2.44.83 4.31.84 1.86 4.83 1.86h6.04Z"/></g><path fill="transparent" stroke="transparent" d="M720 0h560v146H720z"/></g></svg>