<svg xmlns="http://www.w3.org/2000/svg" xml:space="preserve" width="2000" height="439" data-id="lg_b03jOs2vljZHhYDPPS" data-version="1" viewBox="0 0 2000 439"><g data-padding="20"><g fill="#f96d00"><path d="M1129.024 347.705a20.14 20.14 0 0 1-20.393 3.273q-4.72-1.951-7.867-5.664a154.2 154.2 0 0 1-83.582 55.386c18.882-13.092 34.427-35.686 44.812-64.261h34.364l-.503-1.762-1.763-13.595h-27.126c5.287-18.881 8.434-39.714 9.063-61.93h9.881l-2.014-15.358h-7.867a277 277 0 0 0-2.517-29.958q-7.427 2.077-15.043 4.028 1.7 12.588 2.203 25.93h-54.19l-3.147 15.357h57.274a239 239 0 0 1-9.63 61.931h-64.827v-33.986l-7.867 5.475q-3.461 2.329-7.49 3.084v25.427h-64.827a221 221 0 0 1-6.544-28.951l-5.036 2.014-9.44 4.217q2.076 11.77 5.034 22.658H840.89q-6.671 4.028-12.587 8.182-4.595 3.21-8.56 6.419a180 180 0 0 0 158.73 95.603 179.37 179.37 0 0 0 152.627-85.28ZM849.64 336.44h45.316c10.385 28.575 25.93 51.17 44.748 64.197a154.2 154.2 0 0 1-90.001-64.197m121.094 60.988c-24.42-4.09-45.757-27.253-59.288-60.988h59.288Zm15.42-60.988h59.288c-13.533 33.735-34.87 56.897-59.289 60.988Z"/><path d="M1266.607 90.225c-25.175-16.553-77.666-4.846-136.01 17.623L1028.134 7.776 993.58 8.97l82.386 122.102a1630 1630 0 0 0-96.925 48.966L936.56 147.94l-17.623 2.077 43.868 55.323 3.776 70.491 14.602-10.133 10.51-52.24a1624 1624 0 0 0 105.107-27.503l19.134 146.017 26.685-21.966 10.385-142.87c58.659-21.776 105.736-47.833 113.604-76.91"/><path d="m1022.279 87.77-8.496-12.588A180.006 180.006 0 0 0 801.05 223.97a548 548 0 0 1 31.596-22.03q3.462-10.383 8.182-20.14h24.797q13.343-7.677 27.693-15.356h-43.616a154.2 154.2 0 0 1 90.065-64.197 107 107 0 0 0-26.938 28.51q1.889-.628 3.776-.944l17.623-2.076h.378c10.7-12.084 22.91-20.015 36.19-22.217v42.798l10.133 7.615 5.224-2.706V105.52c14.979 2.517 28.7 12.147 40.28 26.937l19.951-9.44Z"/><path d="m942.915 212.892-27.693-34.869a843 843 0 0 0-61.68 34.743 453 453 0 0 0-73.89 55.826 195 195 0 0 0-32.098 39.4 113.3 113.3 0 0 0-11.14 25.11q-.945 3.4-1.762 6.923l-.63 3.525-.629 4.28v5.287l.125 7.678c.63 9.316 3.148 19.197 8.057 27.82a53.5 53.5 0 0 0 19.322 19.699 84.34 84.34 0 0 0 40.28 10.7c23.666.692 41.918-3.147 54.694-5.665l10.07-2.329c-36.944-1.889-59.98-10.825-72.379-17.496a50.3 50.3 0 0 1-11.643-7.805h.25q-1.258-1.07-2.264-2.202c-5.602-6.672-5.728-12.713-3.777-21.4l.881-2.517 1.51-5.035.063-.189-.125.63.125-.126.126-.441.252-.755.63-1.511q.629-1.573 1.385-3.085 3.147-6.293 8.496-12.587a144.8 144.8 0 0 1 27.19-23.98 390.4 390.4 0 0 1 69.798-37.07c20.644-8.81 40.595-15.86 58.66-21.84Z"/></g><path fill="transparent" stroke="transparent" d="M723.5 0h553v439h-553z"/></g></svg>